<svg version="1.1" xmlns="http://www.w3.org/2000/svg" xmlns:xlink="http://www.w3.org/1999/xlink" width="511" height="159" viewBox="0,0,511,159"><g transform="translate(10.5,-89)"><g data-paper-data="{&quot;isPaintingLayer&quot;:true}" fill="none" fill-rule="nonzero" stroke-width="2" stroke-linecap="round" stroke-linejoin="miter" stroke-miterlimit="10" stroke-dasharray="" stroke-dashoffset="0" style="mix-blend-mode: normal"><path d="M-2.5,90l489,2" stroke="#000000"/><path d="M-4.5,124l496,-2" stroke="#000000"/><path d="M-6.5,163l502,-2" stroke="#000000"/><path d="M-9.5,247l509,-6" stroke="#000000"/><path d="M6.5,104l29,1" stroke="#fff700"/><path d="M60.5,105l24,-2" stroke="#fff700"/><path d="M117.5,103l21,-2" stroke="#fff700"/><path d="M182.5,105h25" stroke="#fff700"/><path d="M246.5,107h33" stroke="#fff700"/><path d="M329.5,106l12,-1" stroke="#fff700"/><path d="M404.5,106l20,-1" stroke="#fff700"/><path d="M14.5,150l29,-1" stroke="#fff700"/><path d="M91.5,145l9,-2" stroke="#fff700"/><path d="M173.5,142h19" stroke="#fff700"/><path d="M260.5,142h16" stroke="#fff700"/><path d="M337.5,146l13,-1" stroke="#fff700"/><path d="M436.5,143l35,-2" stroke="#fff700"/><path d="M15.5,212l41,-2" stroke="#fff700"/><path d="M95.5,207l12,-2" stroke="#fff700"/><path d="M171.5,206l32,-2" stroke="#fff700"/><path d="M247.5,204l14,-3" stroke="#fff700"/><path d="M320.5,199l39,-1" stroke="#fff700"/><path d="M415.5,197h19" stroke="#fff700"/></g></g></svg>