<svg version="1.1" xmlns="http://www.w3.org/2000/svg" xmlns:xlink="http://www.w3.org/1999/xlink" width="241.00892" height="33.93055" viewBox="0,0,241.00892,33.93055"><g transform="translate(-126,4.97069)"><g data-paper-data="{&quot;isPaintingLayer&quot;:true}" fill-rule="nonzero" stroke="none" stroke-width="0.5" stroke-linecap="butt" stroke-linejoin="miter" stroke-miterlimit="10" stroke-dasharray="" stroke-dashoffset="0" style="mix-blend-mode: normal"><path d="M153.5,13.5c0.08451,0 0.16902,0 0.25353,-0.00001c0.00002,0 0.00004,0.00001 0.00006,0.00001c0.33301,0 3.4134,0 3.74641,0c0.07221,0 0.14469,-0.00109 0.21743,-0.00315c2.25255,-0.00299 4.50517,-0.00746 6.75781,-0.01047c0.00826,0.00451 0.01651,0.00905 0.02475,0.01363c0.00942,0.00523 0.01875,0.01055 0.028,0.01596c0.32921,-0.01014 0.65358,-0.01596 0.972,-0.01596l5.13625,2.33466c1.68319,-0.00413 3.34597,-0.06926 4.96014,-0.24525c1.74028,0.0565 3.51422,0.11545 5.24139,0.09576c0.03292,0.21782 0.06249,0.43958 0.11005,0.64015c1.09933,0.12788 2.20461,0.26924 3.28135,0.18833c0.16093,-0.02366 0.3216,-0.0478 0.48202,-0.07237l0.03949,0.03015c2.71884,-0.21458 5.70526,-0.34619 8.5338,-0.61224c-0.15446,-0.04088 -0.30823,-0.08292 -0.46129,-0.12614c-1.16508,-0.0191 -2.32958,-0.04824 -3.49026,-0.07951c0.69461,-0.1229 1.388,-0.24411 2.0818,-0.35912c-0.56332,-0.19265 -1.11504,-0.40309 -1.65348,-0.63224c0.74539,-0.14086 1.4888,-0.28579 2.23065,-0.42727l-2.99192,-2.23491c0.59071,-0.12881 1.17775,-0.28497 1.76421,-0.44536c-1.91545,0.06604 -3.88454,0.17175 -5.83332,0.19928c-0.09965,-0.08348 -0.1983,-0.16812 -0.29595,-0.25392c-0.90743,0 -1.71976,0 -2.30206,0c-1.78044,0 -3.8854,0 -4.98388,0c-0.08019,-0.01039 1.83037,-0.02115 1.75054,-0.03228c-0.98331,-0.13716 -1.85425,-0.74383 -2.82008,-0.96388c-2.71305,0.01524 -5.35961,0.06267 -8.00256,-0.10974c-1.36354,0.03537 -2.72263,0.06409 -4.07525,0.08034l-1.3012,0.99329c-0.26573,0 -0.5305,0.01152 -0.7945,0.03228c-5.17443,0 -11.32568,0 -16.50011,0c0.03125,0.00271 0.06911,0.00555 0.10035,0.00852c1.83798,0.17454 3.60552,0.74792 5.38251,1.28093c-0.09629,0.02007 -0.19228,0.04217 -0.28794,0.06649c-0.64882,0.16496 -1.27855,0.40038 -1.90563,0.64406c1.53495,0 3.0699,0 4.60485,0zM254.80546,14.51873c0.01247,0.00159 0.02494,0.00317 0.03742,0.00474c0.04762,-0.00783 0.09523,-0.01566 0.14285,-0.02347c-0.10492,0 -0.20983,0 -0.31475,0c0.04473,0.00675 0.08955,0.013 0.13448,0.01873zM228.85243,12.23572c-0.71879,0.02877 -1.43733,0.06288 -2.15254,0.09687c0.66136,-0.00039 1.32078,0.01115 1.9777,0.0382c-0.05725,0.04355 -0.11477,0.08664 -0.17261,0.12921c0.70482,0 1.40964,0 2.11446,0c0.04231,0.00397 0.08462,0.00803 0.1269,0.01217c0.32734,0.03202 0.65193,0.08227 0.97484,0.14376c0.09603,-0.05188 0.19241,-0.10388 0.28902,-0.15592c0.16327,0 0.32653,0 0.4898,0c1.50598,0 3.00278,-0.01307 4.49323,-0.04739c-1.41059,-0.19496 -2.87183,-0.27484 -4.35567,-0.28942c1.09304,-0.58474 2.18348,-1.15664 3.10338,-1.61682c-0.40972,-0.01119 -0.82013,-0.02765 -1.23083,-0.04637c-1.21154,0 -2.42309,0 -3.63463,0c-0.67113,0.58393 -1.32828,1.19108 -2.02305,1.73572zM181.5,10.5c0.69948,0 1.40335,0.00634 2.1108,0.01702c-0.0054,-0.00567 -0.0108,-0.01134 -0.0162,-0.01702c-0.6982,0 -1.3964,0 -2.0946,0zM199.76244,11.61728c-0.06706,-0.02151 -0.1341,-0.04307 -0.20114,-0.06466l-1.62279,-0.01409c0.60242,0.09699 1.21177,0.10517 1.82393,0.07875zM205.0503,11.79122c-0.02499,-0.06661 -0.05221,-0.13083 -0.08259,-0.19168l-0.72731,-0.00631c0.27216,0.05472 0.54168,0.12301 0.80989,0.19799zM294.13205,14.71376c0.71089,-0.05616 1.41829,-0.12291 2.1216,-0.20159c0.08125,-0.00909 0.16221,-0.01823 0.24288,-0.02742c-0.53204,-0.00479 -1.06406,-0.01042 -1.59608,-0.01703c-0.25523,0.08508 -0.51138,0.16706 -0.7684,0.24604zM184.12573,15.5247c-0.18303,0.01752 -0.36731,0.03339 -0.55271,0.04772l-0.07542,-0.05758c0.20907,0.00292 0.41846,0.00623 0.62814,0.00986z" fill="#66dcff"/><path d="M201,3c0,0.15425 -0.00952,0.29899 -0.02738,0.43479c2.17432,0.02676 4.35105,0.06521 6.52738,0.06521c2.5332,0 5.10334,0.46368 7.59954,0.03228c1.0387,-0.17951 1.95378,-0.87144 3,-1c0.34377,-0.04224 9.82493,-0.03228 10.40046,-0.03228c6.77819,0 13.55637,0 20.33456,0c1.72918,-0.19995 3.4615,-0.37839 5.20211,-0.52721c0.41137,-0.29747 0.91688,-0.47279 1.46333,-0.47279c-0.75,0 -1.5,0 -2,0c-11.29192,0 -22.63965,-0.33722 -33.92471,-0.00113c-2.67554,0.07968 -5.3006,0.77639 -7.96856,0.99288c-3.30697,0.26833 -6.65276,-0.32118 -9.95352,0.01512c-0.22661,0.02309 -0.45196,0.0544 -0.67638,0.09178c0.01514,0.12606 0.02317,0.2597 0.02317,0.40136zM255.5,1.5c-0.5,0 0.75,0 0,0c0,0 0,0 0,0zM258.5,1.5c1.20846,-0.43159 2.56081,-0.03245 3.84933,-0.00183c1.83479,-0.23776 2.9741,-0.11222 4.15067,0.00183c0.66667,0 1.33333,0 2,0l1.85759,0c0.45186,-0.05521 0.89913,-0.13964 1.34438,-0.23698c0.45459,-0.47047 1.09215,-0.76302 1.79803,-0.76302h1.92313c0.49916,-0.05649 1.00312,-0.1006 1.51086,-0.13437c0.78798,-0.2103 1.7246,-0.29501 2.72833,-0.30725c1.17369,-0.20646 2.34992,-0.39463 3.53222,-0.53965c3.83311,-0.47016 7.91609,0.32924 11.82993,0.27611c0.70853,-0.09423 1.41712,-0.18499 2.1262,-0.26266c0.55742,-0.06106 1.116,-0.10335 1.67538,-0.1311c3.9179,-0.73622 7.59624,-1.86237 11.67396,-1.90108h3c0.65424,0 1.24978,0.25131 1.69536,0.66266c0.29568,0.00514 0.57488,0.04373 0.83102,0.12367c2.02196,-0.60932 3.98305,-1.48487 6.07317,-1.75405c1.68443,-0.21693 3.40711,0.17455 5.095,-0.01355c3.03388,-0.3381 6.07651,-2.39879 9.30546,-1.01873h3c1.38071,0 2.5,1.11929 2.5,2.5c0,0.15168 -0.01351,0.3002 -0.03939,0.44443c1.19174,0.03279 2.37364,0.05557 3.53939,0.05557c0.95347,0 4.80793,-0.16055 7.22653,0.30776c2.14147,-0.50496 4.29583,-1.07123 6.46802,-1.28903c3.08044,-0.30887 7.33536,-0.20051 7.80546,4.48127c0.155,1.54362 -1.7482,2.5684 -2.73223,3.76777c-1.75533,2.13944 -4.04209,4.04209 -6,6c-0.93702,0.84731 -1.65364,2.03564 -2.81106,2.54193c-0.91618,0.40077 -2.06878,-0.36446 -3,0c-0.76025,0.29755 -0.93261,1.41351 -1.64238,1.81693c-2.04095,1.16002 -4.59619,0.96762 -6.91387,1.34109c-3.07062,0.49481 -5.91934,2.47162 -9,3c-0.98561,0.16905 -2.01361,-0.1644 -3,0c-1.03975,0.17329 -1.95936,0.83216 -3,1c-1.29501,0.20886 -2.63948,0.13425 -3.98771,0.02993l-2.56682,0.85561c-0.2642,0.09499 -0.54902,0.14675 -0.84593,0.14675c-0.79555,0 -1.50431,-0.3716 -1.96218,-0.95069c-0.89469,0.24499 -1.71934,0.77035 -2.63737,0.91841c-2.92317,0.47146 -6.09831,-0.50147 -9,0c-1.0387,0.17951 -1.95936,0.83216 -3,1c-2.81181,0.4535 -6.14313,0.03548 -9,0c-0.84837,0.29385 -5.45375,1.90924 -6,2c-2.92174,0.48546 -6.0976,-0.5016 -9,0c-1.0387,0.17951 -1.95936,0.83216 -3,1c-0.76399,0.12322 -1.54519,0.14777 -2.33423,0.12578c-1.32969,0.42216 -2.73495,0.54586 -4.46668,-0.12578c-0.11786,-0.04571 -0.23365,-0.09511 -0.34756,-0.14786c-0.00844,0.00004 -0.01688,0.00008 -0.02531,0.00013l-0.01724,0.05173l-0.14951,-0.04984c-0.56047,0.00953 -1.11479,0.05172 -1.65946,0.14585c-3.03099,0.52382 -5.96524,1.51055 -9,2c-2.92917,0.47242 -6.42653,0.03228 -9.40046,0.03228c-6,0 -12,0 -18,0c-6.84321,0 -14.65354,1.05588 -21.40046,-0.03228c-0.07023,-0.01133 -0.13992,-0.02486 -0.20913,-0.04031c-0.21556,0.05587 -0.35475,0.08327 -0.39041,0.07259c-0.25506,-0.07637 -0.501,-0.17135 -0.73946,-0.28162l-0.05111,0.15333l-2.94531,-0.98177c-0.02316,-0.00712 -0.04618,-0.01458 -0.06905,-0.02235c-1.52984,0.01578 -3.08613,0.34357 -4.59552,0.10013c-1.04064,-0.16784 -1.9613,-0.82049 -3,-1c-2.64599,-0.45728 -5.91017,0.04585 -8.59954,0.03228c-1.26373,-0.00637 -2.50925,-0.23681 -3.75198,-0.49812c-0.63984,0.20115 -1.28041,0.39817 -1.94256,0.47939c-3.26634,0.40064 -6.74954,-0.47644 -10,0c-1.90062,0.27859 -5.58978,1.92274 -7.70591,0.98645c-0.12338,-0.05459 -0.2447,-0.11264 -0.36418,-0.17382l-0.02594,0.07781l-2.94531,-0.98177c-1.02156,-0.31417 -1.76412,-1.26534 -1.76412,-2.38994c0,-0.55184 0.1788,-1.06192 0.48162,-1.47546c-1.80585,-0.09404 -3.57306,-0.42455 -5.29595,-1.39791c-0.82087,-0.46375 -1.19155,-1.51493 -2,-2c-0.90388,-0.54233 -2.09612,-0.45767 -3,-1c-0.80845,-0.48507 -1.19232,-1.51364 -2,-2c-0.83385,-0.50212 -1.91278,-0.44689 -2.78405,-0.88084c-2.85404,-1.4215 -5.73179,-2.81459 -8.07861,-4.93168l-4.17079,-0.83416c-0.73078,-0.13125 -1.35133,-0.58009 -1.71369,-1.19855l-2.67441,-0.89147c-0.79123,-0.24334 -1.41509,-0.8688 -1.65619,-1.66101l-1.16354,-0.29088c-1.1133,-0.25265 -1.9444,-1.24829 -1.9444,-2.43804c0,-1.38071 1.11929,-2.5 2.5,-2.5l2.99982,0c0.4561,-0.60722 1.18227,-1 2.00018,-1h3v0.05623c0.10128,-0.01487 0.20309,-0.02743 0.30546,-0.0375c0.55932,-0.05501 1.73264,0.24296 3.00847,0.6354c0.44455,-0.40629 1.03637,-0.65413 1.68607,-0.65413h3c4.08737,0.02316 8.0349,0.92985 11.9882,1.63582c2.28354,-0.1697 4.67381,0.3599 6.9839,0.36415c0.53299,-0.02587 1.06519,-0.03906 1.59511,-0.01823c4.19717,-0.09104 8.58081,-0.47209 12.67913,0.03042c0.44697,0.05481 0.88971,0.11879 1.32915,0.18953c-0.04846,-0.20873 -0.0755,-0.4417 -0.0755,-0.7017c0,-2.5 2.5,-2.5 2.5,-2.5c4.80859,0 9.99859,0.61366 14.75366,0.01217c1.65218,-0.20899 3.24177,-0.81541 4.89894,-0.98019c4.14308,-0.41195 5.97057,0.31275 10.04643,-0.02359c2.75302,-0.22718 5.46473,-0.91884 8.22569,-1.00726c11.33184,-0.36289 22.73557,-0.00113 34.07529,-0.00113c1,0 2,0 3,0h1c0,0 2.5,0 2.5,2.5c0,2.5 -2.5,2.5 -2.5,2.5zM154.81433,13.87337c0.6628,0.39768 1.48065,0.45823 2.22616,0.67607c0.023,-0.12639 0.05551,-0.24947 0.09675,-0.36846c-0.80927,-0.26976 -1.61854,-0.53951 -2.42781,-0.80927l-0.67724,-0.22575c0.23046,0.28123 0.47569,0.54354 0.78214,0.72741zM162.5,17.5h-0.91281c0.34702,0.04499 0.69871,0.05793 1.0527,0.05593c-0.04677,-0.01793 -0.09341,-0.03656 -0.13989,-0.05593z" fill="#66f1ff"/><path d="M168.54775,2.46727c2.82279,-0.12913 8.65087,-0.53514 9.72001,0.76496c3.83526,4.66376 -2.37967,9.92078 -6.04331,11.1605c-1.17647,0.3981 -2.48262,0.08746 -3.72446,0.10727c-2.94285,0.04695 -6.50332,0.43498 -9.40046,-0.03228c-1.04064,-0.16784 -1.96025,-0.82671 -3,-1c-2.6167,-0.43612 -5.55346,1.13093 -7.62765,-2.00594c-2.26431,-3.42439 0.10062,-7.26184 3.0714,-8.77147c1.05784,-0.53755 2.38775,0.04837 3.55625,-0.15802c2.12811,-0.37589 4.2395,-1.01177 6.40046,-1.03228c1,0 2,0 3,0h2c0,0 1.32743,0 2.04775,0.96727zM153.45671,7.3097c-0.50702,0.08022 -1.3826,0.98896 -0.9286,1.22853c1.289,0.68018 2.93473,-0.24555 4.37235,-0.00594c1.03975,0.17329 1.9613,0.82049 3,1c2.66867,0.4612 5.88644,-0.08745 8.59954,-0.03228c0.7592,0.01544 1.55329,0.34175 2.27554,0.10727c0.83587,-0.27137 1.43672,-1.01295 2.13949,-1.54063c0.24145,-0.1813 0.47068,-0.37852 0.70252,-0.57227c-0.07461,0.00563 -0.11754,0.00563 -0.11754,0.00563c-0.20759,0 -0.42034,0 -0.63784,0c-1.71623,0.32818 -3.64698,0 -5.36216,0c-4.16304,0 -8.72504,0 -12,0c0,0 -0.20284,0 -0.49297,-0.05778c-0.51837,-0.07812 -1.03928,-0.21337 -1.55032,-0.13252z" fill="#66ff69"/><path d="M343.02204,2.49795c0.01537,0.00013 0.03074,0.00025 0.0461,0.00037c0.02044,-0.09215 0.04047,-0.18839 0.06015,-0.28889zM340.98259,2.45296c-0.07825,-0.44163 -0.02151,-0.9653 0.28134,-1.571c1.11803,-2.23607 3.3541,-1.11803 3.3541,-1.11803l3.25367,4.02664c-0.53465,1.32573 -0.56796,2.99224 -1.60394,3.9772c-3.0192,2.87049 -4.26466,1.18284 -7.36731,1.69995c-1.03975,0.17329 -1.95936,0.83216 -3,1c-2.91935,0.47084 -6.43597,0.04723 -9.40046,0.03228c-1.13352,-0.00572 -2.3523,0.39931 -3.40046,-0.03228c-0.12428,-0.05117 -0.24684,-0.10554 -0.36786,-0.16278l-0.02226,0.06677l-2.94531,-0.98177c-1.02156,-0.31417 -1.76412,-1.26534 -1.76412,-2.38994c0,-1.1246 0.74256,-2.07576 1.76412,-2.38994l2.94531,-0.98177l0.046,0.13799l0.34412,-0.234c2.02759,0 3.99185,-0.71989 6,-1c3.78483,-0.52794 7.93406,-0.20893 11.88305,-0.07932z" fill="#66ff69"/><path d="M232.26393,19.11803c-1.11803,-2.23607 1.11803,-3.3541 1.11803,-3.3541l2.32746,-1.13564c6.75698,-2.1845 14.70477,-1.12829 21.79057,-1.12829c3.17697,0 7.56479,-0.74418 10.31433,1.37337c1.37676,1.06031 3.18567,2.38889 3.18567,4.12663c0,3.37719 -4.73875,5.02444 -7.09954,5.46772c-4.74295,0.89056 -10.56493,0.05667 -15.40046,0.03228c-2.46173,-0.01242 -5.14796,0.29506 -7.31433,-1.37337c-1.87572,-1.44459 -3.00351,-2.72786 -3.17109,-3.98778c-0.24386,0.07264 -0.48526,0.15017 -0.72401,0.23286l-1.67254,0.86436c0,0 -2.23607,1.11803 -3.3541,-1.11803zM253.64202,18.39477c-0.69119,1.10523 -2.14202,1.10523 -2.14202,1.10523c-1,0 -2,0 -3,0c-0.91152,0 -1.82362,0.03133 -2.73471,0.00832c0.04567,0.00995 0.09076,0.01803 0.13516,0.02397c4.66746,0.62419 9.8808,-0.05948 14.59954,-0.03228c0.86657,0.005 1.74061,0.14715 2.59954,0.03228c0.39296,-0.05255 0.94078,-0.30921 1.4546,-0.53228c-0.51382,-0.22307 -1.06164,-0.47973 -1.4546,-0.53228c-0.85893,-0.11487 -1.73298,0.02729 -2.59954,0.03228c-0.99998,0.00576 -2,0 -3,0c-1.2422,0 -2.53567,-0.04617 -3.85798,-0.10523z" fill="#66ff69"/><path d="M174.26777,13.76777c-1.76777,1.76777 -3.53553,0 -3.53553,0l-1.54656,-1.64114c-0.82541,-0.25164 -1.65083,-0.50328 -2.47624,-0.75492c0,0 -1.17293,-0.39098 -1.59413,-1.44787c-1.02059,1.04318 -2.02067,2.03378 -2.30098,2.20279c-0.33521,0.20212 -5.88089,2.03079 -6.52376,2.24508c0,0 -2.37171,0.79057 -3.16228,-1.58114c-0.79057,-2.37171 1.58114,-3.16228 1.58114,-3.16228c1.81849,-0.60616 3.82938,-0.77402 5.47624,-1.75492c1.29104,-0.76897 2.09409,-2.15711 3.1877,-3.1877l0.75492,-2.47624c0,0 0.79057,-2.37171 3.16228,-1.58114c2.37171,0.79057 1.58114,3.16228 1.58114,3.16228l-0.9717,2.75006c0.23911,0.03718 0.39056,0.08766 0.39056,0.08766c1.17459,0.41503 2.34917,0.83005 3.52376,1.24508l2.45344,2.35886c0,0 1.76777,1.76777 0,3.53553z" fill="#378a38"/><path d="M261.54097,21.50109c0.3239,0.01329 2.45903,0.18854 2.45903,2.49891c0,2.5 -2.5,2.5 -2.5,2.5l-2.76777,-0.73223c-2.08613,-2.08613 -2.30105,-3.54076 -5.23223,-3.26777c0,0 -0.99033,0 -1.72439,-0.62331c-0.49502,0.16501 -0.99003,0.33001 -1.48505,0.49502l-0.0228,0.39606c0,0 -1.76777,1.76777 -3.53553,0c-1.76777,-1.76777 0,-3.53553 0,-3.53553l1.9772,-1.60394c3,-1 6,-2 9,-3c0,0 2.37171,-0.79057 3.16228,1.58114c0.70969,2.12907 -1.12895,2.98397 -1.51259,3.13661c0.75872,0.73003 1.58478,1.55509 2.18185,2.15505z" fill="#378a38"/><path d="M320,5c0,-2.5 2.5,-2.5 2.5,-2.5l3.40046,0.03228c3.07035,0.99263 5.38249,2.00767 8.59954,1.96772c0,0 0.26555,0 0.62356,0.08655c0.40231,-0.69964 0.73388,-1.48867 1.00473,-2.37712c0,0 0.79057,-2.37171 3.16228,-1.58114c2.37171,0.79057 1.58114,3.16228 1.58114,3.16228c-1.77387,5.02031 -4.56082,7.80727 -9.58114,9.58114l-1.67254,0.86436c0,0 -2.23607,1.11803 -3.3541,-1.11803c-1.11803,-2.23607 1.11803,-3.3541 1.11803,-3.3541l1.95785,-0.95529c-1.36414,-0.35098 -2.72036,-0.81446 -4.24027,-1.34092l-2.59954,0.03228c0,0 -2.5,0 -2.5,-2.5z" fill="#378a38"/><path d="M139,4c0,-1.38071 1.11929,-2.5 2.5,-2.5c1.38071,0 2.5,1.11929 2.5,2.5c0,1.38071 -1.11929,2.5 -2.5,2.5c-1.38071,0 -2.5,-1.11929 -2.5,-2.5z" fill="#ff66f5"/><path d="M158,21c0,-1.38071 1.11929,-2.5 2.5,-2.5c1.38071,0 2.5,1.11929 2.5,2.5c0,1.38071 -1.11929,2.5 -2.5,2.5c-1.38071,0 -2.5,-1.11929 -2.5,-2.5z" fill="#ff66f5"/><path d="M305,15c0,-1.38071 1.11929,-2.5 2.5,-2.5c1.38071,0 2.5,1.11929 2.5,2.5c0,1.38071 -1.11929,2.5 -2.5,2.5c-1.38071,0 -2.5,-1.11929 -2.5,-2.5z" fill="#ff66f5"/><path d="M246,3c0,-1.38071 1.11929,-2.5 2.5,-2.5c1.38071,0 2.5,1.11929 2.5,2.5c0,1.38071 -1.11929,2.5 -2.5,2.5c-1.38071,0 -2.5,-1.11929 -2.5,-2.5z" fill="#ff66f5"/><path d="M214,19c0,-1.38071 1.11929,-2.5 2.5,-2.5c1.38071,0 2.5,1.11929 2.5,2.5c0,1.38071 -1.11929,2.5 -2.5,2.5c-1.38071,0 -2.5,-1.11929 -2.5,-2.5z" fill="#ff66f5"/><path d="M356,6c0,-1.38071 1.11929,-2.5 2.5,-2.5c1.38071,0 2.5,1.11929 2.5,2.5c0,1.38071 -1.11929,2.5 -2.5,2.5c-1.38071,0 -2.5,-1.11929 -2.5,-2.5z" fill="#ff66f5"/></g></g></svg>